<?xml version="1.0" encoding="UTF-8" standalone="no"?>
<!-- Created with Inkscape (http://www.inkscape.org/) -->

<svg
   xmlns:dc="http://purl.org/dc/elements/1.1/"
   xmlns:cc="http://creativecommons.org/ns#"
   xmlns:rdf="http://www.w3.org/1999/02/22-rdf-syntax-ns#"
   xmlns:svg="http://www.w3.org/2000/svg"
   xmlns="http://www.w3.org/2000/svg"
   xmlns:sodipodi="http://sodipodi.sourceforge.net/DTD/sodipodi-0.dtd"
   xmlns:inkscape="http://www.inkscape.org/namespaces/inkscape"
   version="1.1"
   id="svg2"
   xml:space="preserve"
   width="333.33334"
   height="88.666664"
   viewBox="0 0 333.33334 88.666664"
   sodipodi:docname="dauphine_psl2018.svg"
   inkscape:version="0.92.1 r15371"><metadata
     id="metadata8"><rdf:RDF><cc:Work
         rdf:about=""><dc:format>image/svg+xml</dc:format><dc:type
           rdf:resource="http://purl.org/dc/dcmitype/StillImage" /><dc:title></dc:title></cc:Work></rdf:RDF></metadata><defs
     id="defs6"><clipPath
       clipPathUnits="userSpaceOnUse"
       id="clipPath18"><path
         d="M 0,66.5 H 250 V 0 H 0 Z"
         id="path16"
         inkscape:connector-curvature="0" /></clipPath><clipPath
       clipPathUnits="userSpaceOnUse"
       id="clipPath208"><path
         d="m 54.869,59.041 c 5.542,-6.068 3.342,-8.819 3.342,-8.819 v 0 c 0,0 -7.288,-3.217 -16.044,-10.331 v 0 c -1.762,4.252 -3.216,7.805 -3.216,7.805 v 0 h -0.588 c 0,0 -9.457,-21.637 -9.692,-22.033 v 0 c 1.166,0.478 2.254,0.028 2.291,0 v 0 c 0.246,0.819 0.532,1.838 1.03,3.314 v 0 c 1.502,1.516 4.598,4.49 8.849,7.79 v 0 c 1.985,-5.083 4.145,-11.104 4.145,-11.104 v 0 c 0,0 1.524,0.342 3.284,0 v 0 c -0.312,0.37 -3.02,6.796 -5.435,12.615 v 0 c 13.514,9.949 36.405,21.231 57.097,4.677 v 0 C 89.033,56.751 67.234,53.481 67.234,53.481 v 0 c 0,0 -6.968,5.614 -11.618,5.614 v 0 c -0.257,0 -0.505,-0.018 -0.747,-0.054 M 38.067,43.943 c 0,0 0.656,-1.071 2.315,-5.185 v 0 c 0,0 -4.968,-4.276 -7.545,-7.313 v 0 c 0,0 2.228,5.745 5.23,12.498"
         id="path206"
         inkscape:connector-curvature="0" /></clipPath><linearGradient
       x1="0"
       y1="0"
       x2="1"
       y2="0"
       gradientUnits="userSpaceOnUse"
       gradientTransform="matrix(71.260689,0,0,71.260689,28.670918,42.379185)"
       spreadMethod="pad"
       id="linearGradient218"><stop
         style="stop-opacity:1;stop-color:#63bbea"
         offset="0"
         id="stop214" /><stop
         style="stop-opacity:1;stop-color:#293389"
         offset="1"
         id="stop216" /></linearGradient></defs><sodipodi:namedview
     pagecolor="#ffffff"
     bordercolor="#666666"
     borderopacity="1"
     objecttolerance="10"
     gridtolerance="10"
     guidetolerance="10"
     inkscape:pageopacity="0"
     inkscape:pageshadow="2"
     inkscape:window-width="736"
     inkscape:window-height="480"
     id="namedview4"
     showgrid="false"
     inkscape:zoom="1.347"
     inkscape:cx="73.125466"
     inkscape:cy="44.333332"
     inkscape:window-x="0"
     inkscape:window-y="27"
     inkscape:window-maximized="0"
     inkscape:current-layer="g10" /><g
     id="g10"
     inkscape:groupmode="layer"
     inkscape:label="dauphine_psl2018"
     transform="matrix(1.3333333,0,0,-1.3333333,0,88.666667)"><g
       id="g12"><g
         id="g14"
         clip-path="url(#clipPath18)"><g
           id="g20"
           transform="translate(156.0596,37.7603)"><path
             d="m 0,0 v -8.964 h 5.457 c 3.121,0 4.735,1.873 4.735,4.483 C 10.192,-1.91 8.578,0 5.457,0 Z m 13.096,-4.443 c 0,-4.117 -2.904,-7.093 -7.569,-7.093 H 0 v -10.14 H -2.796 V 2.571 h 8.323 c 4.665,0 7.569,-2.938 7.569,-7.014"
             style="fill:#153f8f;fill-opacity:1;fill-rule:nonzero;stroke:none"
             id="path22"
             inkscape:connector-curvature="0" /></g><g
           id="g24"
           transform="translate(187.0908,36.6211)"><path
             d="m 0,0 -2.045,-1.577 c -1.257,1.946 -3.267,3.047 -5.42,3.047 -2.187,0 -4.198,-1.138 -4.198,-3.527 0,-2.204 1.65,-3.012 3.806,-4.079 l 2.617,-1.285 c 3.445,-1.688 5.524,-3.49 5.524,-6.761 0,-4.077 -3.262,-6.759 -7.641,-6.759 -3.765,0 -6.888,2.021 -8.718,5.218 l 2.083,1.579 c 1.433,-2.241 3.551,-4.15 6.599,-4.15 2.798,0 4.775,1.579 4.775,4.04 0,2.241 -1.617,3.123 -3.951,4.262 l -2.655,1.285 c -2.761,1.359 -5.345,3.086 -5.345,6.503 0,3.857 3.3,6.32 7.141,6.32 C -4.2,4.116 -1.472,2.389 0,0"
             style="fill:#1a408c;fill-opacity:1;fill-rule:nonzero;stroke:none"
             id="path26"
             inkscape:connector-curvature="0" /></g><g
           id="g28"
           transform="translate(192.3457,40.332)"><path
             d="m 0,0 v -24.247 h 14.03 v 2.571 H 2.799 L 2.799,0 Z"
             style="fill:#1a408c;fill-opacity:1;fill-rule:nonzero;stroke:none"
             id="path30"
             inkscape:connector-curvature="0" /></g><g
           id="g32"
           transform="translate(210.6797,40.2583)"><path
             d="m 0,0 11.333,-11.337 0.045,0.043 L 0.042,0.043 Z"
             style="fill:#24388d;fill-opacity:1;fill-rule:nonzero;stroke:none"
             id="path34"
             inkscape:connector-curvature="0" /></g><g
           id="g36"
           transform="translate(210.7051,28.2412)"><path
             d="m 0,0 v -0.062 l 11.413,0.011 v 0.062 z"
             style="fill:#24388d;fill-opacity:1;fill-rule:nonzero;stroke:none"
             id="path38"
             inkscape:connector-curvature="0" /></g><g
           id="g40"
           transform="translate(210.7217,16.1484)"><path
             d="m 0,0 -0.041,0.043 11.648,11.652 0.046,-0.043 z"
             style="fill:#1a408c;fill-opacity:1;fill-rule:nonzero;stroke:none"
             id="path42"
             inkscape:connector-curvature="0" /></g><g
           id="g44"
           transform="translate(234.707,16.2227)"><path
             d="M 0,0 -10.715,10.715 -10.669,10.76 0.043,0.045 Z"
             style="fill:#1a408c;fill-opacity:1;fill-rule:nonzero;stroke:none"
             id="path46"
             inkscape:connector-curvature="0" /></g><g
           id="g48"
           transform="translate(223.3486,28.1904)"><path
             d="m 0,0 11.456,-0.011 v 0.06 L 0,0.062 Z"
             style="fill:#24388d;fill-opacity:1;fill-rule:nonzero;stroke:none"
             id="path50"
             inkscape:connector-curvature="0" /></g><path
           d="m 210.835,40.139 h 23.844 V 16.292 h -23.844 z m -0.21,-24.055 h 24.263 v 24.264 h -24.263 z"
           style="fill:#1a408c;fill-opacity:1;fill-rule:nonzero;stroke:none"
           id="path52"
           inkscape:connector-curvature="0" /><g
           id="g54"
           transform="translate(222.7627,40.0303)"><path
             d="m 0,0 c -3.835,0 -7.443,-1.868 -9.654,-4.994 -1.822,-2.574 -2.527,-5.705 -1.992,-8.813 0.531,-3.109 2.244,-5.822 4.819,-7.644 2.005,-1.418 4.358,-2.166 6.806,-2.166 v 0 c 3.834,0 7.442,1.866 9.65,4.992 1.823,2.578 2.531,5.707 1.997,8.816 C 11.091,-6.701 9.38,-3.986 6.804,-2.164 4.799,-0.748 2.446,0 0,0 m -0.021,-23.826 v 0 c -2.491,0 -4.887,0.764 -6.924,2.204 -2.621,1.852 -4.365,4.615 -4.911,7.778 -0.543,3.163 0.179,6.351 2.03,8.971 2.249,3.184 5.922,5.083 9.826,5.083 2.49,0 4.885,-0.763 6.925,-2.205 2.621,-1.853 4.364,-4.615 4.906,-7.778 0.546,-3.164 -0.177,-6.349 -2.029,-8.971 -2.247,-3.182 -5.922,-5.082 -9.823,-5.082"
             style="fill:#1a408c;fill-opacity:1;fill-rule:nonzero;stroke:none"
             id="path56"
             inkscape:connector-curvature="0" /></g><g
           id="g58"
           transform="translate(228.709,34.0713)"><path
             d="M 0,0 C 1.829,0 3.466,-0.843 4.541,-2.161 H 4.696 C 3.6,-0.772 1.905,0.123 0,0.123 c -1.395,0 -2.675,-0.482 -3.691,-1.284 l 0.04,-0.124 C -2.65,-0.482 -1.383,0 0,0"
             style="fill:#1a408c;fill-opacity:1;fill-rule:nonzero;stroke:none"
             id="path60"
             inkscape:connector-curvature="0" /></g><g
           id="g62"
           transform="translate(228.4922,22.2461)"><path
             d="m 0,0 c 0.072,-0.002 0.146,-0.005 0.217,-0.005 3.295,0 5.976,2.68 5.976,5.977 0,1.266 -0.395,2.443 -1.075,3.411 L 5.021,9.311 C 5.683,8.363 6.072,7.213 6.072,5.972 6.072,2.743 3.447,0.117 0.217,0.117 0.13,0.117 0.046,0.12 -0.042,0.124"
             style="fill:#1a408c;fill-opacity:1;fill-rule:nonzero;stroke:none"
             id="path64"
             inkscape:connector-curvature="0" /></g><g
           id="g66"
           transform="translate(234,31.9092)"><path
             d="m 0,0 h -0.595 c 0.072,-0.092 0.141,-0.184 0.208,-0.279 z"
             style="fill:#1a408c;fill-opacity:1;fill-rule:nonzero;stroke:none"
             id="path68"
             inkscape:connector-curvature="0" /></g><g
           id="g70"
           transform="translate(233.5137,31.5566)"><path
             d="M 0,0 0.097,0.072 C 0.032,0.168 -0.039,0.263 -0.107,0.353 H -0.265 C -0.171,0.24 -0.083,0.122 0,0"
             style="fill:#1a408c;fill-opacity:1;fill-rule:nonzero;stroke:none"
             id="path72"
             inkscape:connector-curvature="0" /></g><g
           id="g74"
           transform="translate(228.4883,22.252)"><path
             d="M 0,0 C -0.011,0.037 -0.024,0.074 -0.033,0.11 Z"
             style="fill:#1a408c;fill-opacity:1;fill-rule:nonzero;stroke:none"
             id="path76"
             inkscape:connector-curvature="0" /></g><g
           id="g78"
           transform="translate(229.4648,19.3301)"><path
             d="M 0,0 -0.973,2.916 C -1.568,2.938 -2.14,3.048 -2.679,3.232 -1.501,2.44 -0.562,1.319 0,0"
             style="fill:#1a408c;fill-opacity:1;fill-rule:nonzero;stroke:none"
             id="path80"
             inkscape:connector-curvature="0" /></g><g
           id="g82"
           transform="translate(225.3301,31.9092)"><path
             d="m 0,0 -0.273,0.876 c -1.341,-1.074 -2.202,-2.722 -2.202,-4.567 0,-3.142 2.491,-5.71 5.595,-5.848 l -1.477,4.432 6.541,4.755 C 8.101,-0.23 8.01,-0.113 7.919,0 Z"
             style="fill:#1a408c;fill-opacity:1;fill-rule:nonzero;stroke:none"
             id="path84"
             inkscape:connector-curvature="0" /></g><g
           id="g86"
           transform="translate(222.7158,23.7949)"><path
             d="M 0,0 C 0.896,0 1.755,-0.161 2.549,-0.456 1.021,0.627 0.018,2.411 0.018,4.422 c 0,1.901 0.893,3.599 2.284,4.694 L 0.026,16.323 -2.601,8.114 h -8.573 l 6.935,-5.07 -2.503,-7.489 C -5.621,-1.832 -3.024,0 0,0"
             style="fill:#1a408c;fill-opacity:1;fill-rule:nonzero;stroke:none"
             id="path88"
             inkscape:connector-curvature="0" /></g><g
           id="g90"
           transform="translate(229.6875,18.6592)"><path
             d="m 0,0 -0.085,-0.061 c -0.907,2.94 -3.649,5.075 -6.887,5.075 -3.22,0 -5.951,-2.113 -6.876,-5.028 l -0.078,0.063 -0.058,-0.174 7.038,5.139 7.006,-5.186 z"
             style="fill:#1a408c;fill-opacity:1;fill-rule:nonzero;stroke:none"
             id="path92"
             inkscape:connector-curvature="0" /></g><g
           id="g94"
           transform="translate(215.7373,18.7246)"><path
             d="M 0,0 0.024,-0.017 0.237,0.625 C 0.15,0.423 0.071,0.214 0,0"
             style="fill:#1a408c;fill-opacity:1;fill-rule:nonzero;stroke:none"
             id="path96"
             inkscape:connector-curvature="0" /></g><g
           id="g98"
           transform="translate(229.708,18.6738)"><path
             d="m 0,0 c -0.069,0.225 -0.152,0.44 -0.243,0.656 l 0.222,-0.672 z"
             style="fill:#1a408c;fill-opacity:1;fill-rule:nonzero;stroke:none"
             id="path100"
             inkscape:connector-curvature="0" /></g><g
           id="g102"
           transform="translate(223.623,29.1387)"><path
             d="m 0,0 0.044,-0.045 11.181,11.179 -0.043,0.043 z"
             style="fill:#1a408c;fill-opacity:1;fill-rule:nonzero;stroke:none"
             id="path104"
             inkscape:connector-curvature="0" /></g><g
           id="g106"
           transform="translate(137.8701,40.7544)"><path
             d="M 0,0 V -25.075"
             style="fill:none;stroke:#1a408c;stroke-width:0.75;stroke-linecap:butt;stroke-linejoin:miter;stroke-miterlimit:10;stroke-dasharray:none;stroke-opacity:1"
             id="path108"
             inkscape:connector-curvature="0" /></g><g
           id="g110"
           transform="translate(15.5933,25.7734)"><path
             d="M 0,0 C 0.952,0.067 1.88,0.111 2.829,0.111 3.777,0.111 4.708,0 5.657,0 c 3.333,0 7.682,1.971 7.682,7.674 0,4.401 -2.025,7.071 -6.965,7.071 -1.055,0 -2.13,-0.106 -3.185,-0.106 -1.057,0 -2.134,0.042 -3.189,0.106 0.085,-1.837 0.169,-3.693 0.169,-5.534 V 5.537 C 0.169,3.698 0.085,1.841 0,0 m 1.9,9.211 c 0,1.541 0.042,3.056 0.127,4.424 0.866,0.105 2.006,0.214 3.25,0.214 3.461,0 5.994,-1.219 5.994,-6.175 0,-5.64 -3.378,-6.881 -6.481,-6.881 -1.076,0 -2.172,0.085 -2.763,0.215 C 1.942,2.482 1.9,4.022 1.9,5.537 Z"
             style="fill:#1a408c;fill-opacity:1;fill-rule:nonzero;stroke:none"
             id="path112"
             inkscape:connector-curvature="0" /></g><g
           id="g114"
           transform="translate(55.1992,25.7344)"><path
             d="m 0,0 c 3.801,0 5.972,2.375 6.015,6.154 0.041,3.119 0.209,6.879 0.379,8.866 -0.188,-0.064 -0.422,-0.106 -0.631,-0.106 -0.297,0 -0.592,0.042 -0.867,0.106 0.126,-0.833 0.126,-2.885 0.126,-6.942 0,-2.694 0,-7.071 -4.623,-7.071 -4.706,0 -4.706,3.779 -4.706,6.686 0,3.161 0.129,6.065 0.257,7.327 -0.275,-0.064 -0.615,-0.106 -0.909,-0.106 -0.338,0 -0.762,0.042 -1.096,0.106 0.041,-1.238 0.125,-3.183 0.125,-5.537 0,-1.064 -0.107,-2.048 -0.107,-3.372 C -6.037,1.965 -4.178,0 0,0"
             style="fill:#1a408c;fill-opacity:1;fill-rule:nonzero;stroke:none"
             id="path116"
             inkscape:connector-curvature="0" /></g><g
           id="g118"
           transform="translate(69.0879,32.4893)"><path
             d="m 0,0 c 2.025,0 5.677,0.742 5.677,4.58 0,3.642 -3.356,3.685 -4.621,3.685 -0.591,0 -1.944,-0.109 -2.618,-0.109 -0.678,0 -1.374,0.043 -2.048,0.109 0.083,-1.875 0.168,-3.769 0.168,-5.648 v -3.749 c 0,-1.876 -0.085,-3.773 -0.168,-5.65 0.36,0.067 0.694,0.113 1.033,0.113 0.337,0 0.678,-0.046 1.036,-0.113 -0.086,1.877 -0.167,3.774 -0.167,5.65 V 0.066 C -1.16,0.024 -0.633,0 0,0 M -1.708,7.458 H 0.19 c 2.176,0 3.547,-0.521 3.547,-3.01 0,-2.964 -2.216,-3.638 -3.948,-3.638 -0.466,0 -1.055,0.066 -1.497,0.17 z"
             style="fill:#1a408c;fill-opacity:1;fill-rule:nonzero;stroke:none"
             id="path120"
             inkscape:connector-curvature="0" /></g><g
           id="g122"
           transform="translate(89.834,40.7544)"><path
             d="m 0,0 c -0.36,-0.066 -0.699,-0.109 -1.033,-0.109 -0.339,0 -0.675,0.043 -1.037,0.109 0.088,-1.887 0.17,-3.794 0.17,-5.685 v -0.77 c -1.476,-0.019 -2.933,-0.063 -4.411,-0.063 -1.477,0 -2.933,0.044 -4.409,0.063 v 0.77 c 0,1.891 0.084,3.798 0.167,5.685 -0.36,-0.066 -0.694,-0.109 -1.034,-0.109 -0.338,0 -0.674,0.043 -1.031,0.109 0.083,-1.887 0.167,-3.794 0.167,-5.685 v -3.774 c 0,-1.89 -0.084,-3.799 -0.167,-5.689 0.357,0.068 0.693,0.113 1.031,0.113 0.34,0 0.674,-0.045 1.034,-0.113 -0.083,1.89 -0.167,3.799 -0.167,5.689 v 1.975 c 1.476,0.021 2.932,0.045 4.409,0.045 1.478,0 2.935,-0.024 4.411,-0.045 v -1.975 c 0,-1.89 -0.082,-3.799 -0.17,-5.689 0.362,0.068 0.698,0.113 1.037,0.113 0.334,0 0.673,-0.045 1.033,-0.113 -0.086,1.89 -0.169,3.799 -0.169,5.689 v 3.774 c 0,1.891 0.083,3.798 0.169,5.685"
             style="fill:#1a408c;fill-opacity:1;fill-rule:nonzero;stroke:none"
             id="path124"
             inkscape:connector-curvature="0" /></g><g
           id="g126"
           transform="translate(95.6987,40.7544)"><path
             d="m 0,0 c -0.357,-0.066 -0.696,-0.109 -1.031,-0.109 -0.338,0 -0.677,0.043 -1.035,0.109 0.086,-1.889 0.169,-3.798 0.169,-5.691 v -3.777 c 0,-1.892 -0.083,-3.802 -0.169,-5.694 0.358,0.068 0.697,0.114 1.035,0.114 0.335,0 0.674,-0.046 1.031,-0.114 -0.083,1.892 -0.166,3.802 -0.166,5.694 v 3.777 c 0,1.893 0.083,3.802 0.166,5.691"
             style="fill:#1a408c;fill-opacity:1;fill-rule:nonzero;stroke:none"
             id="path128"
             inkscape:connector-curvature="0" /></g><g
           id="g130"
           transform="translate(100.2183,41.0313)"><path
             d="m 0,0 h -0.338 c 0.065,-0.975 0.065,-3.072 0.065,-5.8 0,-2.857 -0.278,-8.399 -0.446,-9.419 0.277,0.067 0.526,0.112 0.781,0.112 0.253,0 0.509,-0.045 0.738,-0.112 -0.104,0.869 -0.19,5.437 -0.19,7.297 0,2.296 0.04,3.596 0.067,4.396 3.608,-3.942 7.448,-8.099 10.654,-11.973 h 0.294 c -0.018,0.977 -0.062,5.761 -0.062,7.97 0,1.685 0.211,5.97 0.34,7.248 -0.233,-0.065 -0.445,-0.107 -0.676,-0.107 -0.231,0 -0.486,0.042 -0.717,0.107 0.164,-3.332 0.164,-7.552 0.164,-11.431 C 8.103,-9.047 3.439,-3.829 0,0"
             style="fill:#1a408c;fill-opacity:1;fill-rule:nonzero;stroke:none"
             id="path132"
             inkscape:connector-curvature="0" /></g><g
           id="g134"
           transform="translate(123.5581,27.0986)"><path
             d="m 0,0 c -1.327,-0.261 -3.821,-0.283 -5.698,-0.283 -0.021,0.541 -0.041,1.602 -0.041,3.25 0,2.084 0,2.625 0.02,3.145 1.013,0 3.674,-0.043 5.13,-0.195 -0.043,0.217 -0.066,0.436 -0.066,0.649 0,0.217 0.023,0.457 0.066,0.675 -1.247,-0.112 -2.642,-0.218 -5.13,-0.218 0,0.54 -0.02,1.733 -0.02,2.863 0,1.061 0.065,1.817 0.083,2.751 2.746,0 3.779,-0.152 5.549,-0.281 -0.039,0.218 -0.063,0.435 -0.063,0.65 0,0.214 0.024,0.433 0.063,0.649 -1.242,-0.064 -2.488,-0.107 -3.755,-0.107 -1.266,0 -2.511,0.043 -3.776,0.107 0.085,-1.842 0.168,-3.729 0.168,-5.593 V 4.335 c 0,-1.864 -0.083,-3.751 -0.168,-5.64 1.29,0.068 2.552,0.113 3.842,0.113 1.285,0 2.551,-0.045 3.796,-0.113 -0.042,0.197 -0.065,0.438 -0.065,0.632 0,0.194 0.023,0.476 0.065,0.673"
             style="fill:#1a408c;fill-opacity:1;fill-rule:nonzero;stroke:none"
             id="path136"
             inkscape:connector-curvature="0" /></g><g
           id="g138"
           transform="translate(20.5752,22.6504)"><path
             d="m 0,0 c 0.059,-0.382 0.059,-1.326 0.059,-3.189 0,-1.239 0,-3.248 -2.122,-3.248 -2.162,0 -2.162,1.737 -2.162,3.072 0,1.451 0.058,2.786 0.118,3.365 -0.127,-0.028 -0.283,-0.049 -0.419,-0.049 -0.154,0 -0.35,0.021 -0.503,0.049 0.017,-0.568 0.058,-1.462 0.058,-2.541 0,-0.49 -0.048,-0.946 -0.048,-1.55 0,-1.903 0.852,-2.807 2.771,-2.807 1.745,0 2.742,1.089 2.763,2.826 C 0.534,-2.64 0.611,-0.913 0.688,0 0.603,-0.028 0.494,-0.049 0.397,-0.049 0.263,-0.049 0.126,-0.028 0,0"
             style="fill:#1a408c;fill-opacity:1;fill-rule:nonzero;stroke:none"
             id="path140"
             inkscape:connector-curvature="0" /></g><g
           id="g142"
           transform="translate(30.4697,22.6016)"><path
             d="m 0,0 c -0.107,0 -0.223,0.02 -0.328,0.048 0.078,-1.511 0.078,-3.425 0.078,-5.179 -1.183,1.204 -3.325,3.569 -4.905,5.306 h -0.156 c 0.029,-0.442 0.029,-1.391 0.029,-2.63 0,-1.294 -0.124,-3.806 -0.202,-4.264 0.124,0.026 0.242,0.047 0.357,0.047 0.117,0 0.234,-0.021 0.34,-0.047 -0.048,0.389 -0.086,2.459 -0.086,3.302 0,1.043 0.018,1.629 0.029,1.992 1.656,-1.784 3.421,-3.668 4.893,-5.426 h 0.137 c -0.011,0.444 -0.028,2.61 -0.028,3.611 0,0.766 0.097,2.709 0.153,3.288 C 0.206,0.02 0.107,0 0,0"
             style="fill:#1a408c;fill-opacity:1;fill-rule:nonzero;stroke:none"
             id="path144"
             inkscape:connector-curvature="0" /></g><g
           id="g146"
           transform="translate(35.4131,22.6504)"><path
             d="m 0,0 c -0.165,-0.028 -0.32,-0.05 -0.476,-0.05 -0.153,0 -0.309,0.022 -0.474,0.05 0.039,-0.845 0.079,-1.699 0.079,-2.541 v -1.688 c 0,-0.843 -0.04,-1.697 -0.079,-2.539 0.165,0.026 0.321,0.047 0.474,0.047 0.156,0 0.311,-0.021 0.476,-0.047 -0.038,0.842 -0.078,1.696 -0.078,2.539 v 1.688 c 0,0.842 0.04,1.696 0.078,2.541"
             style="fill:#1a408c;fill-opacity:1;fill-rule:nonzero;stroke:none"
             id="path148"
             inkscape:connector-curvature="0" /></g><g
           id="g150"
           transform="translate(43.8037,22.6504)"><path
             d="m 0,0 c -0.405,-1.286 -1.491,-4.208 -2.197,-5.798 -0.815,1.982 -1.638,4.06 -2.209,5.798 -0.165,-0.028 -0.34,-0.049 -0.504,-0.049 -0.167,0 -0.341,0.021 -0.505,0.049 0.939,-2.256 2.124,-5.151 2.702,-6.768 0.088,0.026 0.217,0.047 0.322,0.047 0.106,0 0.213,-0.021 0.319,-0.047 C -1.218,-4.513 -0.288,-2.256 0.719,0 0.602,-0.028 0.477,-0.049 0.361,-0.049 0.245,-0.049 0.119,-0.028 0,0"
             style="fill:#1a408c;fill-opacity:1;fill-rule:nonzero;stroke:none"
             id="path152"
             inkscape:connector-curvature="0" /></g><g
           id="g154"
           transform="translate(48.3901,16.3418)"><path
             d="m 0,0 c -0.01,0.244 -0.019,0.725 -0.019,1.473 0,0.939 0,1.184 0.009,1.423 0.466,0 1.689,-0.022 2.355,-0.09 -0.019,0.1 -0.027,0.196 -0.027,0.294 0,0.097 0.008,0.207 0.027,0.305 C 1.772,3.356 1.135,3.307 -0.01,3.307 c 0,0.243 -0.009,0.783 -0.009,1.293 0,0.481 0.029,0.825 0.037,1.247 1.261,0 1.737,-0.07 2.55,-0.129 -0.02,0.1 -0.029,0.196 -0.029,0.296 0,0.098 0.009,0.196 0.029,0.295 C 1.997,6.28 1.424,6.26 0.843,6.26 c -0.58,0 -1.155,0.02 -1.734,0.049 0.038,-0.835 0.076,-1.691 0.076,-2.533 V 2.091 c 0,-0.845 -0.038,-1.697 -0.076,-2.55 0.592,0.025 1.172,0.047 1.764,0.047 0.59,0 1.172,-0.022 1.744,-0.047 -0.018,0.084 -0.031,0.194 -0.031,0.283 0,0.086 0.013,0.214 0.031,0.305 C 2.006,0.011 0.862,0 0,0"
             style="fill:#1a408c;fill-opacity:1;fill-rule:nonzero;stroke:none"
             id="path156"
             inkscape:connector-curvature="0" /></g><g
           id="g158"
           transform="translate(58.5103,21.0986)"><path
             d="m 0,0 c 0,1.17 -0.922,1.551 -2.018,1.551 -0.367,0 -0.735,-0.048 -1.105,-0.048 -0.368,0 -0.735,0.019 -1.105,0.048 0.038,-0.845 0.079,-1.698 0.079,-2.54 v -1.689 c 0,-0.843 -0.041,-1.696 -0.079,-2.538 0.166,0.026 0.32,0.047 0.475,0.047 0.155,0 0.31,-0.021 0.475,-0.047 -0.036,0.842 -0.076,1.695 -0.076,2.538 v 0.716 h 0.367 c 0.834,-0.851 2.122,-2.658 2.509,-3.254 0.186,0.026 0.38,0.047 0.563,0.047 0.192,0 0.387,-0.021 0.582,-0.047 C 0.104,-4.58 -1.514,-2.472 -1.99,-1.874 -1.25,-1.777 0,-1.264 0,0 m -3.354,-1.549 v 0.56 c 0,0.704 0.029,1.412 0.057,2.126 0.202,0.02 0.496,0.05 0.941,0.05 0.658,0 1.5,-0.255 1.5,-1.283 0,-1.168 -1.057,-1.505 -1.848,-1.505 -0.254,0 -0.474,0.011 -0.65,0.052"
             style="fill:#1a408c;fill-opacity:1;fill-rule:nonzero;stroke:none"
             id="path160"
             inkscape:connector-curvature="0" /></g><g
           id="g162"
           transform="translate(62.627,21.1973)"><path
             d="m 0,0 c 0,0.717 0.524,1.218 1.25,1.218 0.728,0 1.019,-0.56 1.154,-0.924 H 2.52 C 2.598,0.669 2.666,0.892 2.781,1.121 2.392,1.435 1.959,1.579 1.349,1.579 c -1.289,0 -2.105,-0.764 -2.105,-1.855 0,-2.303 3.055,-1.529 3.055,-3.333 0,-0.787 -0.524,-1.422 -1.39,-1.422 -0.831,0 -1.316,0.558 -1.528,1.018 h -0.118 c -0.035,-0.37 -0.066,-0.571 -0.181,-0.872 0.337,-0.275 0.793,-0.56 1.597,-0.56 1.491,0 2.376,1.009 2.376,2.208 C 3.055,-1.069 0,-1.836 0,0"
             style="fill:#1a408c;fill-opacity:1;fill-rule:nonzero;stroke:none"
             id="path164"
             inkscape:connector-curvature="0" /></g><g
           id="g166"
           transform="translate(69.8794,22.6504)"><path
             d="m 0,0 c -0.165,-0.028 -0.319,-0.05 -0.476,-0.05 -0.154,0 -0.309,0.022 -0.474,0.05 0.038,-0.845 0.078,-1.699 0.078,-2.541 v -1.688 c 0,-0.843 -0.04,-1.697 -0.078,-2.539 0.165,0.026 0.32,0.047 0.474,0.047 0.157,0 0.311,-0.021 0.476,-0.047 -0.038,0.842 -0.078,1.696 -0.078,2.539 v 1.688 c 0,0.842 0.04,1.696 0.078,2.541"
             style="fill:#1a408c;fill-opacity:1;fill-rule:nonzero;stroke:none"
             id="path168"
             inkscape:connector-curvature="0" /></g><g
           id="g170"
           transform="translate(75.3833,22.5996)"><path
             d="m 0,0 c -0.833,0 -1.665,0.021 -2.5,0.05 0.029,-0.109 0.05,-0.205 0.05,-0.302 0,-0.112 -0.021,-0.217 -0.05,-0.317 0.542,0.067 1.406,0.107 2.076,0.107 0.016,-0.674 0.028,-1.353 0.028,-2.028 v -1.689 c 0,-0.843 -0.04,-1.696 -0.08,-2.538 0.165,0.026 0.322,0.047 0.476,0.047 0.153,0 0.31,-0.021 0.476,-0.047 -0.04,0.842 -0.079,1.695 -0.079,2.538 v 1.689 c 0,0.675 0.011,1.354 0.03,2.028 0.667,0 1.53,-0.04 2.073,-0.107 -0.03,0.1 -0.048,0.205 -0.048,0.304 0,0.11 0.018,0.206 0.048,0.315 C 1.668,0.021 0.833,0 0,0"
             style="fill:#1a408c;fill-opacity:1;fill-rule:nonzero;stroke:none"
             id="path172"
             inkscape:connector-curvature="0" /></g><g
           id="g174"
           transform="translate(83.3584,24.5625)"><path
             d="m 0,0 -1.423,-1.461 h 0.406 l 1.426,0.922 c 0.155,0.098 0.349,0.225 0.349,0.461 0,0.205 -0.194,0.313 -0.32,0.313 C 0.292,0.235 0.138,0.139 0,0"
             style="fill:#1a408c;fill-opacity:1;fill-rule:nonzero;stroke:none"
             id="path176"
             inkscape:connector-curvature="0" /></g><g
           id="g178"
           transform="translate(81.7817,16.3418)"><path
             d="m 0,0 c -0.012,0.244 -0.021,0.725 -0.021,1.473 0,0.939 0,1.184 0.009,1.423 0.466,0 1.688,-0.022 2.355,-0.09 -0.017,0.1 -0.027,0.196 -0.027,0.294 0,0.097 0.01,0.207 0.027,0.305 C 1.772,3.356 1.134,3.307 -0.012,3.307 c 0,0.243 -0.009,0.783 -0.009,1.293 0,0.481 0.029,0.825 0.038,1.247 1.26,0 1.737,-0.07 2.55,-0.129 -0.02,0.1 -0.029,0.196 -0.029,0.296 0,0.098 0.009,0.196 0.029,0.297 C 1.996,6.28 1.425,6.26 0.844,6.26 0.261,6.26 -0.309,6.28 -0.893,6.311 -0.854,5.474 -0.814,4.618 -0.814,3.776 V 2.091 c 0,-0.845 -0.04,-1.697 -0.079,-2.55 0.592,0.025 1.172,0.047 1.765,0.047 0.591,0 1.171,-0.022 1.744,-0.047 -0.02,0.084 -0.027,0.194 -0.027,0.283 0,0.086 0.007,0.214 0.027,0.305 C 2.005,0.011 0.861,0 0,0"
             style="fill:#1a408c;fill-opacity:1;fill-rule:nonzero;stroke:none"
             id="path180"
             inkscape:connector-curvature="0" /></g><g
           id="g182"
           transform="translate(94.4473,22.6504)"><path
             d="m 0,0 c -0.272,0 -0.892,-0.049 -1.202,-0.049 -0.311,0 -0.63,0.021 -0.941,0.049 0.039,-0.845 0.08,-1.699 0.08,-2.541 v -1.686 c 0,-0.845 -0.041,-1.699 -0.08,-2.541 0.167,0.026 0.323,0.047 0.477,0.047 0.153,0 0.31,-0.021 0.477,-0.047 -0.041,0.842 -0.08,1.696 -0.08,2.541 v 0.537 c 0.252,-0.019 0.495,-0.029 0.787,-0.029 0.928,0 2.604,0.333 2.604,2.061 C 2.122,-0.019 0.58,0 0,0 m -0.58,-3.355 c -0.213,0 -0.485,0.027 -0.689,0.08 v 2.912 h 0.872 c 0.998,0 1.627,-0.237 1.627,-1.354 0,-1.336 -1.017,-1.638 -1.81,-1.638"
             style="fill:#1a408c;fill-opacity:1;fill-rule:nonzero;stroke:none"
             id="path184"
             inkscape:connector-curvature="0" /></g><g
           id="g186"
           transform="translate(101.4258,22.7764)"><path
             d="m 0,0 c -0.989,-2.314 -1.997,-4.599 -3.033,-6.894 0.125,0.026 0.241,0.047 0.359,0.047 0.115,0 0.23,-0.021 0.355,-0.047 0.166,0.617 0.534,1.617 0.944,2.626 0.395,0.011 0.783,0.019 1.181,0.019 0.427,0 0.853,-0.008 1.268,-0.019 0.35,-0.873 0.815,-1.951 0.999,-2.626 0.176,0.026 0.34,0.047 0.514,0.047 0.175,0 0.34,-0.021 0.513,-0.047 C 2.587,-5.848 1.133,-2.277 0.185,0 Z m -0.145,-3.835 c -0.339,0 -0.709,0.019 -1.047,0.019 l 1.054,2.493 1.078,-2.493 C 0.582,-3.825 0.214,-3.835 -0.145,-3.835"
             style="fill:#1a408c;fill-opacity:1;fill-rule:nonzero;stroke:none"
             id="path188"
             inkscape:connector-curvature="0" /></g><g
           id="g190"
           transform="translate(111.7285,21.0986)"><path
             d="m 0,0 c 0,1.17 -0.921,1.551 -2.018,1.551 -0.367,0 -0.736,-0.048 -1.105,-0.048 -0.367,0 -0.734,0.019 -1.104,0.048 0.041,-0.845 0.079,-1.698 0.079,-2.54 v -1.689 c 0,-0.843 -0.038,-1.696 -0.079,-2.538 0.168,0.026 0.319,0.047 0.477,0.047 0.153,0 0.31,-0.021 0.473,-0.047 -0.039,0.842 -0.077,1.695 -0.077,2.538 v 0.716 h 0.366 c 0.835,-0.851 2.123,-2.658 2.511,-3.254 0.185,0.026 0.379,0.047 0.563,0.047 0.195,0 0.388,-0.021 0.582,-0.047 -0.562,0.636 -2.181,2.744 -2.656,3.342 C -1.25,-1.777 0,-1.264 0,0 m -3.354,-1.549 v 0.56 c 0,0.704 0.027,1.412 0.057,2.126 0.204,0.02 0.496,0.05 0.939,0.05 0.661,0 1.505,-0.255 1.505,-1.283 0,-1.168 -1.058,-1.505 -1.851,-1.505 -0.253,0 -0.475,0.011 -0.65,0.052"
             style="fill:#1a408c;fill-opacity:1;fill-rule:nonzero;stroke:none"
             id="path192"
             inkscape:connector-curvature="0" /></g><g
           id="g194"
           transform="translate(116.313,22.6504)"><path
             d="m 0,0 c -0.165,-0.028 -0.32,-0.05 -0.475,-0.05 -0.155,0 -0.312,0.022 -0.475,0.05 0.037,-0.845 0.076,-1.699 0.076,-2.541 v -1.688 c 0,-0.843 -0.039,-1.697 -0.076,-2.539 0.163,0.026 0.32,0.047 0.475,0.047 0.155,0 0.31,-0.021 0.475,-0.047 -0.042,0.842 -0.078,1.696 -0.078,2.539 v 1.688 c 0,0.842 0.036,1.696 0.078,2.541"
             style="fill:#1a408c;fill-opacity:1;fill-rule:nonzero;stroke:none"
             id="path196"
             inkscape:connector-curvature="0" /></g><g
           id="g198"
           transform="translate(120.481,21.1973)"><path
             d="m 0,0 c 0,0.717 0.521,1.218 1.247,1.218 0.727,0 1.016,-0.56 1.154,-0.924 h 0.116 c 0.079,0.375 0.146,0.598 0.262,0.827 -0.39,0.314 -0.823,0.458 -1.435,0.458 -1.288,0 -2.102,-0.764 -2.102,-1.855 0,-2.303 3.051,-1.529 3.051,-3.333 0,-0.787 -0.522,-1.422 -1.385,-1.422 -0.834,0 -1.317,0.558 -1.531,1.018 H -0.74 c -0.039,-0.37 -0.067,-0.571 -0.183,-0.872 0.339,-0.275 0.793,-0.56 1.598,-0.56 1.492,0 2.375,1.009 2.375,2.208 C 3.05,-1.069 0,-1.836 0,0"
             style="fill:#1a408c;fill-opacity:1;fill-rule:nonzero;stroke:none"
             id="path200"
             inkscape:connector-curvature="0" /></g></g></g><g
       id="g202"><g
         id="g204"
         clip-path="url(#clipPath208)"><g
           id="g210"><g
             id="g212"><path
               d="m 54.869,59.041 c 5.542,-6.068 3.342,-8.819 3.342,-8.819 v 0 c 0,0 -7.288,-3.217 -16.044,-10.331 v 0 c -1.762,4.252 -3.216,7.805 -3.216,7.805 v 0 h -0.588 c 0,0 -9.457,-21.637 -9.692,-22.033 v 0 c 1.166,0.478 2.254,0.028 2.291,0 v 0 c 0.246,0.819 0.532,1.838 1.03,3.314 v 0 c 1.502,1.516 4.598,4.49 8.849,7.79 v 0 c 1.985,-5.083 4.145,-11.104 4.145,-11.104 v 0 c 0,0 1.524,0.342 3.284,0 v 0 c -0.312,0.37 -3.02,6.796 -5.435,12.615 v 0 c 13.514,9.949 36.405,21.231 57.097,4.677 v 0 C 89.033,56.751 67.234,53.481 67.234,53.481 v 0 c 0,0 -6.968,5.614 -11.618,5.614 v 0 c -0.257,0 -0.505,-0.018 -0.747,-0.054 M 38.067,43.943 c 0,0 0.656,-1.071 2.315,-5.185 v 0 c 0,0 -4.968,-4.276 -7.545,-7.313 v 0 c 0,0 2.228,5.745 5.23,12.498"
               style="fill:url(#linearGradient218);stroke:none"
               id="path220"
               inkscape:connector-curvature="0" /></g></g></g></g></g></svg>