<?xml version="1.0" encoding="UTF-8" standalone="no"?>
<!-- Created with Inkscape (http://www.inkscape.org/) -->

<svg
   xmlns:dc="http://purl.org/dc/elements/1.1/"
   xmlns:cc="http://creativecommons.org/ns#"
   xmlns:rdf="http://www.w3.org/1999/02/22-rdf-syntax-ns#"
   xmlns:svg="http://www.w3.org/2000/svg"
   xmlns="http://www.w3.org/2000/svg"
   xmlns:sodipodi="http://sodipodi.sourceforge.net/DTD/sodipodi-0.dtd"
   xmlns:inkscape="http://www.inkscape.org/namespaces/inkscape"
   version="1.1"
   id="svg2"
   xml:space="preserve"
   width="1122.52"
   height="793.70667"
   viewBox="0 0 1122.52 793.70667"
   sodipodi:docname="LOGO PSL-nov 2017.ai.svg"
   inkscape:version="0.92.1 r15371"><metadata
     id="metadata8"><rdf:RDF><cc:Work
         rdf:about=""><dc:format>image/svg+xml</dc:format><dc:type
           rdf:resource="http://purl.org/dc/dcmitype/StillImage" /><dc:title></dc:title></cc:Work></rdf:RDF></metadata><defs
     id="defs6"><clipPath
       clipPathUnits="userSpaceOnUse"
       id="clipPath18"><path
         d="M 0,595.28 H 841.89 V 0 H 0 Z"
         id="path16"
         inkscape:connector-curvature="0" /></clipPath></defs><sodipodi:namedview
     pagecolor="#ffffff"
     bordercolor="#666666"
     borderopacity="1"
     objecttolerance="10"
     gridtolerance="10"
     guidetolerance="10"
     inkscape:pageopacity="0"
     inkscape:pageshadow="2"
     inkscape:window-width="736"
     inkscape:window-height="480"
     id="namedview4"
     showgrid="false"
     inkscape:zoom="0.29733907"
     inkscape:cx="561.26001"
     inkscape:cy="396.85333"
     inkscape:window-x="0"
     inkscape:window-y="27"
     inkscape:window-maximized="0"
     inkscape:current-layer="g10" /><g
     id="g10"
     inkscape:groupmode="layer"
     inkscape:label="LOGO PSL-nov 2017"
     transform="matrix(1.3333333,0,0,-1.3333333,0,793.70667)"><g
       id="g12"><g
         id="g14"
         clip-path="url(#clipPath18)"><g
           id="g20"
           transform="translate(124.6055,169.3906)"><path
             d="m 0,0 c 0,-9.132 -6.184,-14.705 -14.428,-14.705 -8.309,0 -14.446,5.573 -14.446,14.705 v 19.954 h 6.96 V -0.518 c 0,-5.112 3.253,-7.736 7.486,-7.736 4.27,0 7.468,2.624 7.468,7.736 V 19.954 H 0 Z"
             style="fill:#1e4697;fill-opacity:1;fill-rule:nonzero;stroke:none"
             id="path22"
             inkscape:connector-curvature="0" /></g><g
           id="g24"
           transform="translate(176.6035,189.3447)"><path
             d="m 0,0 v -34.659 h -2.329 l -19.697,21.045 V -34.04 h -6.95 V 0.619 h 2.265 L -6.96,-20.269 V 0 Z"
             style="fill:#1e4697;fill-opacity:1;fill-rule:nonzero;stroke:none"
             id="path26"
             inkscape:connector-curvature="0" /></g><path
           d="m 206.834,155.305 h -6.96 v 34.04 h 6.96 z"
           style="fill:#1e4697;fill-opacity:1;fill-rule:nonzero;stroke:none"
           id="path28"
           inkscape:connector-curvature="0" /><g
           id="g30"
           transform="translate(259.5527,189.3447)"><path
             d="m 0,0 -15.157,-34.659 h -2.339 L -32.699,0 h 7.883 L -16.293,-20.628 -7.837,0 Z"
             style="fill:#1e4697;fill-opacity:1;fill-rule:nonzero;stroke:none"
             id="path32"
             inkscape:connector-curvature="0" /></g><g
           id="g34"
           transform="translate(302.5762,183.0508)"><path
             d="m 0,0 h -15.953 v -6.904 h 11.738 v -5.933 h -11.738 v -8.615 H 0.619 v -6.294 H -22.903 V 6.294 L 0,6.294 Z"
             style="fill:#1e4697;fill-opacity:1;fill-rule:nonzero;stroke:none"
             id="path36"
             inkscape:connector-curvature="0" /></g><g
           id="g38"
           transform="translate(331.6709,173.458)"><path
             d="M 0,0 H 5.823 C 9.078,0 10.98,1.959 10.98,4.897 10.98,7.744 9.078,9.75 5.823,9.75 H 0 Z M 13.929,-18.153 5.111,-6.137 H 0 v -12.016 h -6.958 v 34.04 H 5.823 c 7.172,0 12.275,-4.335 12.275,-10.99 0,-4.38 -2.32,-7.835 -5.991,-9.638 l 9.659,-13.412 z"
             style="fill:#1e4697;fill-opacity:1;fill-rule:nonzero;stroke:none"
             id="path40"
             inkscape:connector-curvature="0" /></g><g
           id="g42"
           transform="translate(394.8613,183.5127)"><path
             d="m 0,0 -4.76,-3.66 c -1.645,2.477 -3.705,3.919 -6.489,3.919 -2.272,0 -4.231,-1.026 -4.231,-3.29 0,-1.968 1.497,-2.791 3.974,-3.928 l 3.872,-1.71 c 5.37,-2.367 8.401,-5.101 8.401,-9.944 0,-6.351 -5.158,-10.214 -11.913,-10.214 -5.887,0 -10.619,2.994 -13.143,7.522 l 4.779,3.616 c 1.867,-2.58 4.288,-4.945 8.364,-4.945 2.986,0 4.853,1.387 4.853,3.762 0,2.219 -1.655,2.995 -4.336,4.232 l -3.659,1.647 c -4.843,2.217 -8.244,5.008 -8.244,9.796 0,5.887 4.889,9.648 11.283,9.648 C -5.832,6.451 -2.015,3.717 0,0"
             style="fill:#1e4697;fill-opacity:1;fill-rule:nonzero;stroke:none"
             id="path44"
             inkscape:connector-curvature="0" /></g><path
           d="m 424.215,155.305 h -6.978 v 34.04 h 6.978 z"
           style="fill:#1e4697;fill-opacity:1;fill-rule:nonzero;stroke:none"
           id="path46"
           inkscape:connector-curvature="0" /><g
           id="g48"
           transform="translate(473.0615,183.0508)"><path
             d="m 0,0 h -10.941 v -27.746 h -6.962 V 0 H -28.78 V 6.294 H 0 Z"
             style="fill:#1e4697;fill-opacity:1;fill-rule:nonzero;stroke:none"
             id="path50"
             inkscape:connector-curvature="0" /></g><g
           id="g52"
           transform="translate(513.8018,201)"><path
             d="m 0,0 -7.052,-8.356 h -5.055 l 3.696,9.594 8.411,0 z m 2.236,-17.949 h -15.943 v -6.905 h 11.692 v -5.932 h -11.692 v -8.615 H 2.847 v -6.294 h -23.531 v 34.04 h 22.92 z"
             style="fill:#1e4697;fill-opacity:1;fill-rule:nonzero;stroke:none"
             id="path54"
             inkscape:connector-curvature="0" /></g><g
           id="g56"
           transform="translate(575.042,183.208)"><path
             d="m 0,0 v -9.797 h 5.832 c 3.244,0 5.156,2.006 5.156,4.944 C 10.988,-2.006 9.076,0 5.832,0 Z m 18.106,-4.853 c 0,-6.543 -5.102,-11.034 -12.274,-11.034 H 0 V -27.903 H -6.95 V 6.137 H 5.832 c 7.172,0 12.274,-4.335 12.274,-10.99"
             style="fill:#1e4697;fill-opacity:1;fill-rule:nonzero;stroke:none"
             id="path58"
             inkscape:connector-curvature="0" /></g><g
           id="g60"
           transform="translate(623.167,176.9141)"><path
             d="M 0,0 -4.501,-11.452 H 4.493 Z M 6.969,-17.173 H -6.959 l -1.914,-4.436 h -7.476 L -1.127,13.05 h 2.31 L 16.35,-21.609 H 8.873 Z"
             style="fill:#1e4697;fill-opacity:1;fill-rule:nonzero;stroke:none"
             id="path62"
             inkscape:connector-curvature="0" /></g><g
           id="g64"
           transform="translate(666.6064,173.458)"><path
             d="m 0,0 h 5.822 c 3.253,0 5.149,1.959 5.149,4.897 0,2.847 -1.896,4.853 -5.149,4.853 H 0 Z M 13.91,-18.153 5.101,-6.137 H 0 v -12.016 h -6.979 v 34.04 H 5.822 c 7.163,0 12.265,-4.335 12.265,-10.99 0,-4.38 -2.301,-7.835 -5.971,-9.638 l 9.649,-13.412 z"
             style="fill:#1e4697;fill-opacity:1;fill-rule:nonzero;stroke:none"
             id="path66"
             inkscape:connector-curvature="0" /></g><path
           d="m 715.092,155.305 h -6.979 v 34.04 h 6.979 z"
           style="fill:#1e4697;fill-opacity:1;fill-rule:nonzero;stroke:none"
           id="path68"
           inkscape:connector-curvature="0" /><g
           id="g70"
           transform="translate(760.2783,183.5127)"><path
             d="m 0,0 -4.751,-3.66 c -1.645,2.477 -3.696,3.919 -6.506,3.919 -2.257,0 -4.215,-1.026 -4.215,-3.29 0,-1.968 1.496,-2.791 3.965,-3.928 l 3.882,-1.71 c 5.351,-2.367 8.401,-5.101 8.401,-9.944 0,-6.351 -5.158,-10.214 -11.914,-10.214 -5.886,0 -10.629,2.994 -13.152,7.522 l 4.806,3.616 c 1.831,-2.58 4.251,-4.945 8.346,-4.945 2.987,0 4.844,1.387 4.844,3.762 0,2.219 -1.654,2.995 -4.334,4.232 l -3.662,1.647 c -4.851,2.217 -8.253,5.008 -8.253,9.796 0,5.887 4.89,9.648 11.286,9.648 C -5.841,6.451 -2.008,3.717 0,0"
             style="fill:#1e4697;fill-opacity:1;fill-rule:nonzero;stroke:none"
             id="path72"
             inkscape:connector-curvature="0" /></g><g
           id="g74"
           transform="translate(563.7578,425.3677)"><path
             d="m 0,0 92.266,-92.304 0.36,0.356 L 0.341,0.346 Z"
             style="fill:#1e4697;fill-opacity:1;fill-rule:nonzero;stroke:none"
             id="path76"
             inkscape:connector-curvature="0" /></g><g
           id="g78"
           transform="translate(563.9687,327.5322)"><path
             d="m 0,0 v -0.503 l 92.905,0.092 v 0.508 z"
             style="fill:#1e4697;fill-opacity:1;fill-rule:nonzero;stroke:none"
             id="path80"
             inkscape:connector-curvature="0" /></g><g
           id="g82"
           transform="translate(604.5449,248.8096)"><path
             d="m 0,0 c -1.627,-5.443 -2.516,-11.211 -2.516,-17.181 0,-0.795 0.027,-1.608 0.055,-2.403 h 0.991 c -0.028,0.795 -0.038,1.608 -0.038,2.403 0,5.712 0.805,11.248 2.32,16.489"
             style="fill:#1e4697;fill-opacity:1;fill-rule:nonzero;stroke:none"
             id="path84"
             inkscape:connector-curvature="0" /></g><g
           id="g86"
           transform="translate(718.1152,248.1172)"><path
             d="m 0,0 c 1.514,-5.24 2.347,-10.776 2.347,-16.488 0,-0.814 -0.038,-1.609 -0.074,-2.404 h 0.989 c 0.036,0.795 0.064,1.59 0.064,2.404 0,5.785 -0.823,11.386 -2.329,16.673"
             style="fill:#1e4697;fill-opacity:1;fill-rule:nonzero;stroke:none"
             id="path88"
             inkscape:connector-curvature="0" /></g><g
           id="g90"
           transform="translate(564.0986,229.0869)"><path
             d="m 0,0 -0.341,0.351 94.845,94.865 0.369,-0.352 z"
             style="fill:#1e4697;fill-opacity:1;fill-rule:nonzero;stroke:none"
             id="path92"
             inkscape:connector-curvature="0" /></g><g
           id="g94"
           transform="translate(759.3711,229.6875)"><path
             d="M 0,0 -87.229,87.239 -86.859,87.6 0.353,0.361 Z"
             style="fill:#1e4697;fill-opacity:1;fill-rule:nonzero;stroke:none"
             id="path96"
             inkscape:connector-curvature="0" /></g><g
           id="g98"
           transform="translate(666.9014,327.1211)"><path
             d="M 0,0 93.265,-0.092 V 0.402 L 0,0.503 Z"
             style="fill:#1e4697;fill-opacity:1;fill-rule:nonzero;stroke:none"
             id="path100"
             inkscape:connector-curvature="0" /></g><path
           d="m 661.689,229.226 h 0.509 v 61.116 h -0.509 z"
           style="fill:#1e4697;fill-opacity:1;fill-rule:nonzero;stroke:none"
           id="path102"
           inkscape:connector-curvature="0" /><path
           d="M 563.305,228.551 H 760.833 V 426.094 H 563.305 Z m 1.718,195.851 H 759.141 V 230.261 H 565.023 Z"
           style="fill:#1e4697;fill-opacity:1;fill-rule:nonzero;stroke:none"
           id="path104"
           inkscape:connector-curvature="0" /><g
           id="g106"
           transform="translate(661.957,229.5312)"><path
             d="m 0,0 h -0.009 c -20.269,0 -39.779,6.22 -56.37,17.947 -21.33,15.084 -35.527,37.576 -39.981,63.325 -4.41,25.759 1.468,51.703 16.534,73.043 18.31,25.912 48.218,41.378 79.992,41.378 20.27,0 39.77,-6.211 56.38,-17.953 C 77.887,162.656 92.082,140.165 96.49,114.416 100.927,88.666 95.059,62.728 79.975,41.378 61.675,15.48 31.757,0 0,0 m 0.166,193.983 c -31.22,0 -60.601,-15.208 -78.597,-40.657 C -93.256,132.36 -99.004,106.878 -94.651,81.568 -90.315,56.264 -76.38,34.17 -55.408,19.345 -39.086,7.801 -19.926,1.709 -0.009,1.709 H 0 c 31.203,0 60.584,15.195 78.561,40.648 14.842,20.981 20.61,46.461 16.249,71.768 -4.345,25.301 -18.283,47.408 -39.255,62.233 -16.321,11.53 -35.463,17.625 -55.389,17.625"
             style="fill:#1e4697;fill-opacity:1;fill-rule:nonzero;stroke:none"
             id="path108"
             inkscape:connector-curvature="0" /></g><g
           id="g110"
           transform="translate(710.5352,375.0015)"><path
             d="m 0,0 c 14.899,0 28.218,-6.872 36.97,-17.602 h 1.266 C 29.309,-6.285 15.51,1.002 0,1.002 c -11.35,0 -21.775,-3.928 -30.057,-10.452 l 0.324,-1.017 C -21.58,-3.928 -11.257,0 0,0"
             style="fill:#1e4697;fill-opacity:1;fill-rule:nonzero;stroke:none"
             id="path112"
             inkscape:connector-curvature="0" /></g><g
           id="g114"
           transform="translate(708.7695,278.7275)"><path
             d="m 0,0 c 0.583,-0.018 1.185,-0.037 1.766,-0.037 26.83,0 48.662,21.817 48.662,48.648 0,10.314 -3.227,19.903 -8.753,27.779 L 40.881,75.802 C 46.268,68.084 49.439,58.718 49.439,48.611 49.439,22.335 28.06,0.953 1.766,0.953 1.062,0.953 0.38,0.98 -0.333,1.008"
             style="fill:#1e4697;fill-opacity:1;fill-rule:nonzero;stroke:none"
             id="path116"
             inkscape:connector-curvature="0" /></g><g
           id="g118"
           transform="translate(753.6133,357.3994)"><path
             d="m 0,0 h -4.842 c 0.572,-0.744 1.137,-1.502 1.692,-2.282 z"
             style="fill:#1e4697;fill-opacity:1;fill-rule:nonzero;stroke:none"
             id="path120"
             inkscape:connector-curvature="0" /></g><g
           id="g122"
           transform="translate(749.6504,354.5293)"><path
             d="M 0,0 0.794,0.588 C 0.258,1.359 -0.307,2.14 -0.879,2.87 H -2.146 C -1.388,1.945 -0.677,0.984 0,0"
             style="fill:#1e4697;fill-opacity:1;fill-rule:nonzero;stroke:none"
             id="path124"
             inkscape:connector-curvature="0" /></g><g
           id="g126"
           transform="translate(708.7412,278.7744)"><path
             d="M 0,0 C -0.092,0.305 -0.202,0.601 -0.276,0.896 Z"
             style="fill:#1e4697;fill-opacity:1;fill-rule:nonzero;stroke:none"
             id="path128"
             inkscape:connector-curvature="0" /></g><g
           id="g130"
           transform="translate(716.6904,254.9854)"><path
             d="m 0,0 -7.921,23.742 c -4.852,0.185 -9.501,1.072 -13.89,2.57 C -12.219,19.879 -4.574,10.747 0,0"
             style="fill:#1e4697;fill-opacity:1;fill-rule:nonzero;stroke:none"
             id="path132"
             inkscape:connector-curvature="0" /></g><g
           id="g134"
           transform="translate(683.0303,357.3994)"><path
             d="m 0,0 -2.229,7.135 c -10.914,-8.748 -17.919,-22.163 -17.919,-37.187 0,-25.573 20.268,-46.494 45.554,-47.612 L 13.364,-41.582 66.62,-2.865 C 65.943,-1.876 65.215,-0.925 64.475,0 Z"
             style="fill:#1e4697;fill-opacity:1;fill-rule:nonzero;stroke:none"
             id="path136"
             inkscape:connector-curvature="0" /></g><g
           id="g138"
           transform="translate(661.7461,291.3398)"><path
             d="M 0,0 C 7.291,0 14.288,-1.317 20.748,-3.716 8.299,5.102 0.138,19.617 0.138,35.999 c 0,15.481 7.283,29.293 18.594,38.212 L 0.211,132.887 -21.175,66.06 H -90.974 L -34.522,24.778 -54.893,-36.198 C -45.76,-14.923 -24.623,0 0,0"
             style="fill:#1e4697;fill-opacity:1;fill-rule:nonzero;stroke:none"
             id="path140"
             inkscape:connector-curvature="0" /></g><g
           id="g142"
           transform="translate(718.5029,249.5225)"><path
             d="m 0,0 -0.686,-0.491 c -7.391,23.93 -29.722,41.318 -56.063,41.318 -26.23,0 -48.458,-17.204 -55.99,-40.937 l -0.629,0.507 -0.481,-1.415 57.294,41.837 L 0.49,-1.405 Z"
             style="fill:#1e4697;fill-opacity:1;fill-rule:nonzero;stroke:none"
             id="path144"
             inkscape:connector-curvature="0" /></g><g
           id="g146"
           transform="translate(604.9326,250.0576)"><path
             d="M 0,0 0.202,-0.138 1.921,5.084 C 1.229,3.438 0.571,1.739 0,0"
             style="fill:#1e4697;fill-opacity:1;fill-rule:nonzero;stroke:none"
             id="path148"
             inkscape:connector-curvature="0" /></g><g
           id="g150"
           transform="translate(718.6689,249.6426)"><path
             d="M 0,0 C -0.563,1.82 -1.238,3.595 -1.979,5.343 L -0.166,-0.12 Z"
             style="fill:#1e4697;fill-opacity:1;fill-rule:nonzero;stroke:none"
             id="path152"
             inkscape:connector-curvature="0" /></g><g
           id="g154"
           transform="translate(669.1289,334.8389)"><path
             d="M 0,0 0.361,-0.361 91.39,90.644 91.037,90.996 Z"
             style="fill:#1e4697;fill-opacity:1;fill-rule:nonzero;stroke:none"
             id="path156"
             inkscape:connector-curvature="0" /></g><g
           id="g158"
           transform="translate(225.6978,368.8555)"><path
             d="m 0,0 c 0,-33.518 -23.642,-57.742 -61.62,-57.742 h -45 v -82.553 h -22.764 V 57.113 H -61.62 C -23.642,57.113 0,33.189 0,0 m -106.62,36.174 v -72.973 h 44.419 c 25.416,0 38.559,15.245 38.559,36.489 0,20.939 -13.143,36.484 -38.559,36.484 z"
             style="fill:#1e4697;fill-opacity:1;fill-rule:nonzero;stroke:none"
             id="path160"
             inkscape:connector-curvature="0" /></g><g
           id="g162"
           transform="translate(371.71,395.7593)"><path
             d="M 0,0 -16.645,-12.851 C -26.877,3 -43.254,11.965 -60.769,11.965 c -17.81,0 -34.179,-9.261 -34.179,-28.707 0,-17.954 13.429,-24.529 30.972,-33.204 l 21.312,-10.475 c 28.06,-13.748 44.975,-28.407 44.975,-55.039 0,-33.19 -26.554,-55.029 -62.203,-55.029 -30.655,0 -56.082,16.451 -70.981,42.479 l 16.96,12.865 c 11.674,-18.254 28.901,-33.8 53.735,-33.8 22.773,0 38.866,12.856 38.866,32.894 0,18.254 -13.171,25.425 -32.165,34.695 l -21.608,10.472 c -22.487,11.068 -43.523,25.126 -43.523,52.941 0,31.396 26.868,51.452 58.135,51.452 C -34.198,33.509 -11.987,19.446 0,0"
             style="fill:#1e4697;fill-opacity:1;fill-rule:nonzero;stroke:none"
             id="path164"
             inkscape:connector-curvature="0" /></g><g
           id="g166"
           transform="translate(414.4932,425.9687)"><path
             d="m 0,0 v -197.408 h 114.218 v 20.942 H 22.782 L 22.782,0 Z"
             style="fill:#1e4697;fill-opacity:1;fill-rule:nonzero;stroke:none"
             id="path168"
             inkscape:connector-curvature="0" /></g></g></g></g></svg>